<svg viewBox="0 0 30 30" xmlns="http://www.w3.org/2000/svg">
  <circle cx="15" cy="15" r="15" fill="#828282"/>
  <path fill-rule="evenodd" clip-rule="evenodd" d="M13.394 8.66663C11.496 8.66663 9.97133 10.1906 9.97133 12.0893C9.97133 13.988 11.4953 15.5126 13.394 15.5126C15.2933 15.5126 16.8173 13.988 16.8173 12.0893C16.8173 10.1906 15.2933 8.66663 13.394 8.66663ZM13.394 9.66663C14.7407 9.66663 15.8173 10.7433 15.8173 12.0893C15.8173 13.436 14.7407 14.5126 13.394 14.5126C12.0473 14.5126 10.9713 13.436 10.9713 12.0893C10.9713 10.7426 12.048 9.66663 13.394 9.66663ZM20.378 12.0773C20.378 10.588 19.17 9.37929 17.68 9.37929C17.404 9.37929 17.18 9.60329 17.18 9.87929C17.18 10.156 17.404 10.3793 17.68 10.3793C18.618 10.3793 19.378 11.14 19.378 12.0773C19.378 13.0153 18.618 13.7753 17.68 13.7753C17.404 13.7753 17.18 13.9993 17.18 14.2753C17.18 14.552 17.404 14.7753 17.68 14.7753C19.17 14.7753 20.378 13.568 20.378 12.0773ZM19.866 16.3293C19.4967 16.2473 19.112 16.192 18.7247 16.1653C18.4493 16.1466 18.2113 16.3546 18.192 16.63C18.1733 16.906 18.3813 17.1446 18.6567 17.1633C18.994 17.186 19.3293 17.2346 19.6607 17.308C20.1787 17.4106 20.5213 17.582 20.614 17.7766C20.684 17.9233 20.684 18.0966 20.614 18.2433C20.522 18.4373 20.1807 18.6086 19.668 18.714C19.3973 18.7693 19.2233 19.034 19.2793 19.304C19.3347 19.5746 19.5993 19.7493 19.8693 19.6933C20.666 19.5293 21.2493 19.2373 21.5173 18.6733C21.716 18.2533 21.716 17.7666 21.5173 17.3466C21.2473 16.7806 20.6587 16.4866 19.866 16.3293ZM8.33333 19.012C8.33333 17.2626 10.172 16.6373 13.394 16.6373L13.6073 16.6386C16.704 16.6653 18.4553 17.2906 18.4553 18.9986C18.4553 20.6706 16.7767 21.316 13.8153 21.37L13.394 21.3733C10.1647 21.3733 8.334 20.76 8.334 19.012H8.33333ZM17.4553 18.9986C17.4553 18.1006 16.0753 17.6373 13.394 17.6373C10.716 17.6373 9.334 18.1073 9.334 19.012C9.334 19.9113 10.7127 20.3733 13.394 20.3733C16.0727 20.3733 17.4553 19.9033 17.4553 18.9986Z" fill="#BDBDBD"/>
</svg>
